<?xml version="1.0" encoding="UTF-8"?>
<svg width="96px" height="96px" viewBox="0 0 96 96" version="1.1" xmlns="http://www.w3.org/2000/svg" xmlns:xlink="http://www.w3.org/1999/xlink">
    <!-- Generator: Sketch 58 (84663) - https://sketch.com -->
    <title>ext_icon</title>
    <desc>Created with Sketch.</desc>
    <defs>
        <rect id="path-1" x="0.501272265" y="0" width="96" height="96"></rect>
    </defs>
    <g id="ext_icon" stroke="none" stroke-width="1" fill="none" fill-rule="evenodd">
        <g transform="translate(-1.000000, 0.000000)" id="Rectangle">
            <g>
                <g id="path-1-Clipped" transform="translate(0.498728, 0.000000)">
                    <mask id="mask-2" fill="white">
                        <use xlink:href="#path-1"></use>
                    </mask>
                    <g id="path-1"></g>
                    <rect id="path-1" stroke="#979797" stroke-width="2" fill="#4098FF" fill-rule="nonzero" mask="url(#mask-2)" x="0.501272265" y="0" width="96" height="96"></rect>
                </g>
            </g>
        </g>
        <g id="FAQ" transform="translate(13.000000, 15.000000)" fill-rule="nonzero">
            <path d="M62.125,0 L8.875,0 C3.97988281,0 0,3.97965018 0,8.87448123 L0,48.8096468 C0,53.7044778 3.97988281,57.684128 8.875,57.684128 L22.1875,57.684128 L22.1875,69.3318846 C22.1875,70.6907896 23.740625,71.4811731 24.8361328,70.6769232 L42.15625,57.684128 L62.125,57.684128 C67.0201172,57.684128 71,53.7044778 71,48.8096468 L71,8.87448123 C71,3.97965018 67.0201172,0 62.125,0 Z" id="Path" fill="#FFFFFF"></path>
            <g id="Comment" transform="translate(16.000000, 38.000000)" fill="#4098FF">
                <path d="M3.9,8 C1.7428125,8 0,6.2125 0,4 C0,1.7875 1.7428125,0 3.9,0 C6.0571875,0 7.8,1.7875 7.8,4 C7.8,6.2125 6.0571875,8 3.9,8 Z" id="Path"></path>
                <path d="M19.5,8 C17.3428125,8 15.6,6.2125 15.6,4 C15.6,1.7875 17.3428125,0 19.5,0 C21.6571875,0 23.4,1.7875 23.4,4 C23.4,6.2125 21.6571875,8 19.5,8 Z" id="Path"></path>
                <path d="M35.1,8 C32.9428125,8 31.2,6.2125 31.2,4 C31.2,1.7875 32.9428125,0 35.1,0 C37.2571875,0 39,1.7875 39,4 C39,6.2125 37.2571875,8 35.1,8 Z" id="Path"></path>
            </g>
        </g>
    </g>
</svg>