<?xml version="1.0" encoding="UTF-8"?>
<svg width="96px" height="96px" viewBox="0 0 96 96" version="1.1" xmlns="http://www.w3.org/2000/svg" xmlns:xlink="http://www.w3.org/1999/xlink">
    <!-- Generator: Sketch 58 (84663) - https://sketch.com -->
    <title>FAQ</title>
    <desc>Created with Sketch.</desc>
    <g id="FAQ" stroke="none" stroke-width="1" fill="none" fill-rule="evenodd">
        <g id="comment-alt-regular" transform="translate(1.000000, 0.000000)" fill="#4098FF" fill-rule="nonzero">
            <g id="Dots" transform="translate(25.000000, 51.000000)">
                <path d="M4.5,9 C2.0109375,9 0,6.9890625 0,4.5 C0,2.0109375 2.0109375,0 4.5,0 C6.9890625,0 9,2.0109375 9,4.5 C9,6.9890625 6.9890625,9 4.5,9 Z" id="Path"></path>
                <path d="M22.5,9 C20.0109375,9 18,6.9890625 18,4.5 C18,2.0109375 20.0109375,0 22.5,0 C24.9890625,0 27,2.0109375 27,4.5 C27,6.9890625 24.9890625,9 22.5,9 Z" id="Path"></path>
                <path d="M40.5,9 C38.0109375,9 36,6.9890625 36,4.5 C36,2.0109375 38.0109375,0 40.5,0 C42.9890625,0 45,2.0109375 45,4.5 C45,6.9890625 42.9890625,9 40.5,9 Z" id="Path"></path>
            </g>
            <path d="M84,0 L12,0 C5.38125,0 0,5.38125 0,12 L0,66 C0,72.61875 5.38125,78 12,78 L30,78 L30,93.75 C30,95.08125 31.0875,96 32.25,96 C32.7,96 33.16875,95.86875 33.58125,95.55 L57,78 L84,78 C90.61875,78 96,72.61875 96,66 L96,12 C96,5.38125 90.61875,0 84,0 Z M87,66 C87,67.65 85.65,69 84,69 L54,69 L51.6,70.8 L39,80.25 L39,69 L12,69 C10.35,69 9,67.65 9,66 L9,12 C9,10.35 10.35,9 12,9 L84,9 C85.65,9 87,10.35 87,12 L87,66 Z" id="Shape"></path>
        </g>
    </g>
</svg>